PathFileType	4	(X/Y/Z)	Kaydara																																																																																																																									
DataRate	CameraRate	NumFrames	NumMarkers	Units	OrigDataRate	OrigDataStartFrame	OrigNumFrames																																																																																																																					
30	30	4	41	mm	30	146	174																																																																																																																					
Frame#	Time	SALE_LFHD			SALE_RFHD			SALE_LBHD			SALE_RBHD			SALE_LFTShould			SALE_RFTShould			SALE_LRRShould			SALE_RRRShould			SALE_T10			SALE_STRN			SALE_TRUN			SALE_LSHO			SALE_LUPA			SALE_LELB			SALE_LFRM			SALE_LWRA			SALE_LWRB			SALE_LFIN			SALE_RSHO			SALE_RUPA			SALE_RELB			SALE_RFRM			SALE_RWRB			SALE_RFIN			SALE_LFWT			SALE_RFWT			SALE_LBWT			SALE_RBWT			SALE_LTHI			SALE_LKNE			SALE_RWRA			SALE_LSHN			SALE_LANK			SALE_LHEE			SALE_LTOE			SALE_RTHI			SALE_RKNE			SALE_RSHN			SALE_RANK			SALE_RHEE			SALE_RTOE		
		X1	Y1	Z1	X2	Y2	Z2	X3	Y3	Z3	X4	Y4	Z4	X5	Y5	Z5	X6	Y6	Z6	X7	Y7	Z7	X8	Y8	Z8	X9	Y9	Z9	X10	Y10	Z10	X11	Y11	Z11	X12	Y12	Z12	X13	Y13	Z13	X14	Y14	Z14	X15	Y15	Z15	X16	Y16	Z16	X17	Y17	Z17	X18	Y18	Z18	X19	Y19	Z19	X20	Y20	Z20	X21	Y21	Z21	X22	Y22	Z22	X23	Y23	Z23	X24	Y24	Z24	X25	Y25	Z25	X26	Y26	Z26	X27	Y27	Z27	X28	Y28	Z28	X29	Y29	Z29	X30	Y30	Z30	X31	Y31	Z31	X32	Y32	Z32	X33	Y33	Z33	X34	Y34	Z34	X35	Y35	Z35	X36	Y36	Z36	X37	Y37	Z37	X38	Y38	Z38	X39	Y39	Z39	X40	Y40	Z40	X41	Y41	Z41
																																																																																																																												
131	4.833	169.48889	1597.47879	2303.51822	36.37925	1594.27673	2306.46484	163.41642	1571.5889	2171.02295	34.88202	1567.08206	2180.55359	177.53761	1334.91119	2270.86411	38.98045	1332.37869	2277.64099	166.87004	1389.66339	2157.49802	17.22686	1393.09845	2170.00717	88.18899	1237.06581	2097.6535	106.63309	1263.56537	2322.18552	107.20951	1178.56651	2365.6369	287.48026	1359.50989	2195.89401	325.31548	1144.35707	2172.88254	303.69411	1034.27223	2154.3074	335.73177	928.15536	2169.0181	283.34427	784.41452	2231.7981	341.73813	780.06943	2179.63669	339.636	728.14087	2219.86359	-70.07481	1362.40692	2220.77255	-113.77554	1130.03914	2180.58411	-145.69945	1035.83374	2237.67822	-141.7972	920.72922	2252.41165	-164.16424	799.02397	2329.49326	-172.68534	773.9315	2391.90079	227.75976	923.80585	2304.47922	-48.36349	931.35193	2294.93866	182.13829	964.32175	2129.75372	3.20125	981.87569	2123.18893	224.70198	606.31023	2299.29855	205.77715	501.85062	2457.43149	-117.8575	822.62093	2384.60434	204.58431	286.97903	2453.32199	196.98919	105.73565	2388.8092	150.46404	58.01569	2322.90787	171.18683	44.088	2542.7713	-46.97688	682.92252	2135.22583	-13.46799	519.02954	2232.77954	53.45505	325.73502	2193.64471	17.41048	82.86158	2102.34558	43.87613	25.90718	2220.30838	62.3789	31.97761	2019.93622
132	4.867	170.92773	1592.49191	2341.09787	37.75646	1590.5661	2342.76154	165.88379	1566.18698	2208.6319	37.28166	1562.93884	2216.87943	177.638	1330.69794	2309.17694	38.98173	1328.25623	2313.8739	168.20282	1385.45486	2195.77805	18.61588	1388.81409	2205.94589	90.35766	1232.81914	2134.59991	105.84334	1259.51485	2359.14261	105.81004	1174.7805	2403.05573	288.2711	1355.59006	2235.63004	326.00227	1142.46559	2203.83759	303.8361	1034.03427	2179.0593	336.19541	926.9606	2188.76419	285.71346	780.43625	2246.28601	342.78648	778.43651	2192.60513	343.00522	725.59547	2231.77231	-69.15059	1358.98773	2255.38193	-113.15263	1126.17775	2218.55804	-145.34549	1033.08487	2278.48999	-140.46254	918.71849	2301.98151	-161.62823	803.96477	2390.46707	-170.15791	784.89594	2454.25644	228.0442	919.60869	2345.94147	-47.79709	926.68343	2329.73602	184.80177	961.81282	2170.11337	6.60281	978.81813	2159.55261	220.81724	596.56929	2322.94937	207.759	488.93631	2479.95346	-115.50253	833.3638	2442.92679	207.16866	284.28593	2523.69949	199.4227	93.51158	2510.50842	154.6951	32.11609	2456.9313	172.3666	68.75044	2676.45447	-42.93318	682.91832	2162.0694	-11.70842	517.00871	2255.81741	56.72708	322.74902	2207.5206	21.82745	84.73393	2102.117	45.46415	26.2339	2219.99832	69.98311	37.71364	2020.92896
133	4.9	172.88242	1585.42603	2378.10867	39.68326	1584.94705	2378.68317	168.7064	1559.1507	2245.56244	40.03438	1557.31705	2252.62451	178.57027	1325.5191	2347.05765	39.44618	1322.70294	2349.23386	170.02192	1378.61771	2232.81158	20.52995	1381.81381	2240.39993	93.56066	1225.24536	2172.10083	105.55333	1255.03372	2396.20575	104.91671	1170.90271	2441.14502	289.50867	1349.90707	2274.21509	327.25212	1139.12987	2235.48981	304.68231	1032.03712	2206.52374	337.4102	924.60442	2210.95291	288.61099	774.27986	2262.64603	344.58698	775.9359	2208.91113	347.25929	722.39059	2246.68823	-67.86621	1352.82623	2288.63724	-111.79152	1119.7982	2254.6933	-144.34474	1027.55455	2316.90552	-138.50665	914.78836	2348.93188	-157.70162	807.49817	2447.58057	-166.91784	794.84444	2512.43195	227.33786	912.54959	2390.42603	-47.18883	921.46378	2365.01801	189.65361	956.29707	2213.80661	12.20129	975.02304	2197.35916	222.96268	583.66516	2345.14923	208.86614	471.28654	2503.61725	-112.42039	842.50443	2497.18048	207.80506	290.29455	2585.30457	204.59782	100.37863	2613.95477	164.91737	28.22329	2571.05743	160.93899	111.59073	2782.42004	-38.33799	683.33313	2190.69504	-11.79784	514.11053	2277.60834	57.02325	321.94237	2224.75388	24.47382	88.87716	2104.8613	44.84601	25.99621	2219.56985	74.53569	44.91393	2022.41837
134	4.933	175.28486	1577.42996	2414.50592	42.00506	1578.26492	2414.04907	171.78568	1551.48544	2281.82755	42.95531	1550.99075	2287.99286	180.14618	1319.06052	2384.70062	40.3526	1315.84656	2383.77914	172.75915	1370.08743	2269.14597	23.17703	1373.0159	2274.1037	98.15501	1215.44106	2210.05035	105.61965	1249.53453	2433.60168	104.15345	1166.19537	2479.94492	291.62682	1342.33871	2312.07916	328.99067	1133.66592	2267.92648	306.01662	1027.4527	2236.4093	339.64832	920.14191	2236.38916	293.37858	767.72171	2284.80484	347.36168	771.55792	2229.15604	352.31346	717.22702	2265.27542	-66.07555	1344.13422	2320.83282	-109.65073	1110.14366	2289.95148	-142.74343	1019.14658	2354.12537	-136.4783	908.87741	2393.7851	-154.24886	808.93776	2500.57602	-163.6338	801.86333	2566.16486	225.57966	903.89496	2435.09216	-47.68123	916.64536	2400.94315	195.89085	949.08279	2258.05939	18.81447	970.34813	2235.87158	227.14497	577.1714	2386.57806	210.45383	463.95123	2541.9455	-109.48045	848.33717	2547.04178	210.25244	290.82827	2631.12	204.38841	104.27194	2678.9624	161.51264	27.75198	2645.27985	159.43819	136.00522	2848.60687	-32.79349	683.28224	2222.14325	-12.12171	509.92325	2303.04367	56.5539	318.8287	2242.7063	23.45069	93.73186	2108.42041	43.9801	25.70304	2220.05997	73.21415	52.76094	2024.36707
